<svg version="1.1" preserveAspectRatio="none" xmlns="http://www.w3.org/2000/svg" width="500" height="500" viewBox="0 0 500 500"><rect width="100%" height="100%" fill="#87A3B5" fill-opacity="1"/><svg viewBox="478.8123 329.1687 396.2307 320.2199" width="333" height="269.1190427697803" x="83.5px" y="115.4405px" xmlns="http://www.w3.org/2000/svg" xmlns:xlink="http://www.w3.org/1999/xlink" preserveAspectRatio="none"><defs></defs><style>.companyName {fill:#FFE7D6;fill-opacity:1;}.icon1 {fill:#FFE7D6;fill-opacity:1;}.icon2 {fill:#364C63;fill-opacity:1;}.icon3 {fill:#F3B340;fill-opacity:1;}.icon3-str {stroke:#F3B340;stroke-opacity:1;}.text {fill:#FFE7D6;fill-opacity:1;}</style><g opacity="1" transform="rotate(0 617.4931 329.1687)">
<svg width="118.8692" height="138.2199" x="617.4931" y="329.1687" version="1.1" preserveAspectRatio="none" viewBox="35.5 25 129 150">
  <g transform="matrix(1 0 0 1 0 0)"><g><path d="M164.1 62.9L99.6 25 35.5 62.1l.4 75 64.5 37.9 64.1-37.1-.4-75zm-46.4 17.3v80.5l-10.9 6.2V87l10.9-6.8zm3.6-2.2l10.9-6.8v81.2l-10.9 6.2V78zm14.5-9.1l11.3-7v81.8l-11.3 6.6V68.9zm-57.5 31.6v-12l59.3-37.1 10 5.9-69.3 43.2zm-13.8-51l10-5.9v112.1l-10-5.9V49.5zm-3.6 98.2l-9.3-5.5V57l9.3-5.4v96.1zm17.4-75.4l46.6-28.4 9.3 5.4-55.9 35v-12zm0-4.1V57.9L112.7 37l8.6 5-43 26.2zm0 36.6l10.6-6.6v65.9L78.3 158v-53.2zm31-70l-31 18.8v-12h-.2l21.5-12.5 9.7 5.7zM39.1 64.3l9.1-5.2v81.3l-8.8-5.2-.3-70.9zm53.2 101.8V95.9l10.9-6.8v80l-2.9 1.6-8-4.6zm58.4-24.3V59.6l.5-.4 9.5 5.5.2 70.9-10.2 6.2z" data-color="1" class="icon1"></path></g></g>
</svg>
</g><g opacity="1" transform="rotate(0 596.3818 633.3886)">
<svg width="161.0917" height="16" x="596.3818" y="633.3886" version="1.1" preserveAspectRatio="none" viewBox="1.92 -30.32 315.68 31.36">
  <g transform="matrix(1 0 0 1 0 0)" class="text"><path id="id-6izo4zJp11" d="M1.92-29.12L21.40-29.12L21.40-24.64L13.88-24.64L13.88 0L9.24 0L9.24-24.64L1.92-24.64L1.92-29.12Z M47.44 0L44.76-6.84L34.16-6.84L31.36 0L26.76 0L39.64-30.32L39.92-30.32L52.80 0L47.44 0ZM35.80-10.84L43.20-10.84L39.56-20.04L35.80-10.84Z M67.28-17.96L67.16-16.48L67.80-17.40L78.76-29.12L84.76-29.12L72.72-16.40L85.20 0L79.28 0L69.32-13.44L67.28-11.44L67.28 0L62.56 0L62.56-29.12L67.28-29.12L67.28-17.96Z M94.92-29.12L114.24-29.12L114.24-24.64L99.60-24.64L99.60-16.88L112.64-16.88L112.64-12.40L99.60-12.40L99.60-4.48L114.80-4.48L114.80 0L94.92 0L94.92-29.12Z M161.28 0L158.60-6.84L148-6.84L145.20 0L140.60 0L153.48-30.32L153.76-30.32L166.64 0L161.28 0ZM149.64-10.84L157.04-10.84L153.40-20.04L149.64-10.84Z M196.28-2.28Q195.00-1.36 192.74-0.52Q190.48 0.32 187.80 0.32L187.80 0.32Q183.28 0.32 179.90-1.66Q176.52-3.64 174.70-6.98Q172.88-10.32 172.88-14.32L172.88-14.32Q172.88-18.68 174.70-22.12Q176.52-25.56 179.78-27.50Q183.04-29.44 187.20-29.44L187.20-29.44Q189.76-29.44 191.94-28.76Q194.12-28.08 195.80-27.04L195.80-27.04L193.96-22.68Q190.72-24.96 187.36-24.96L187.36-24.96Q184.80-24.96 182.58-23.58Q180.36-22.20 179.04-19.82Q177.72-17.44 177.72-14.60L177.72-14.60Q177.72-11.60 178.94-9.22Q180.16-6.84 182.42-5.50Q184.68-4.16 187.64-4.16L187.64-4.16Q189.76-4.16 191.46-4.80Q193.16-5.44 194.32-6.44L194.32-6.44L196.28-2.28Z M205.20-29.12L224.68-29.12L224.68-24.64L217.16-24.64L217.16 0L212.52 0L212.52-24.64L205.20-24.64L205.20-29.12Z M235.40-29.12L240.08-29.12L240.08 0L235.40 0L235.40-29.12Z M251.08-14.52Q251.08-18.52 253.08-21.94Q255.08-25.36 258.50-27.40Q261.92-29.44 265.96-29.44L265.96-29.44Q269.96-29.44 273.38-27.40Q276.80-25.36 278.84-21.92Q280.88-18.48 280.88-14.52L280.88-14.52Q280.88-10.48 278.86-7.08Q276.84-3.68 273.40-1.68Q269.96 0.32 265.96 0.32L265.96 0.32Q261.92 0.32 258.50-1.66Q255.08-3.64 253.08-7.04Q251.08-10.44 251.08-14.52L251.08-14.52ZM255.88-14.52Q255.88-11.68 257.24-9.32Q258.60-6.96 260.94-5.56Q263.28-4.16 266.08-4.16L266.08-4.16Q268.84-4.16 271.12-5.54Q273.40-6.92 274.74-9.30Q276.08-11.68 276.08-14.52L276.08-14.52Q276.08-17.36 274.72-19.76Q273.36-22.16 271.04-23.56Q268.72-24.96 265.96-24.96L265.96-24.96Q263.16-24.96 260.86-23.56Q258.56-22.16 257.22-19.76Q255.88-17.36 255.88-14.52L255.88-14.52Z M312.96-29.12L317.60-29.12L317.60 1.04L317.48 1.04L296.48-19.32L296.60 0L291.88 0L291.88-30.12L292.12-30.12L313.04-9.52L312.96-29.12Z"/></g>
</svg>
</g><g opacity="1" transform="rotate(0 478.8123 517.3886)">
<svg width="396.2307" height="80" x="478.8123" y="517.3886" version="1.1" preserveAspectRatio="none" viewBox="1.4 -28.6 189.2 38.2">
  <g transform="matrix(1 0 0 1 0 0)" class="companyName"><path id="id-D6z1nYkh10" d="M4.40-22.80L4.40-22.80Q4.40-21.16 5.36-19.98Q6.32-18.80 7.76-17.80Q9.20-16.80 10.90-15.84Q12.60-14.88 14.04-13.66Q15.48-12.44 16.44-10.80Q17.40-9.16 17.40-6.80L17.40-6.80Q17.40-5.24 16.84-3.88Q16.28-2.52 15.26-1.52Q14.24-0.52 12.84 0.04Q11.44 0.60 9.80 0.60L9.80 0.60Q8.28 0.60 7.20 0.30Q6.12 0 5.40-0.40L5.40-0.40Q4.56-0.84 4-1.40L4-1.40Q3.68-0.80 3.14-0.28Q2.60 0.24 2 0.40L2 0.40L1.40 0.40Q1.44-0.16 1.48-0.80L1.48-0.80Q1.52-1.32 1.56-1.96Q1.60-2.60 1.60-3.20L1.60-3.20Q1.60-3.88 1.56-4.54Q1.52-5.20 1.48-5.76L1.48-5.76Q1.44-6.40 1.40-7L1.40-7L2-7Q2.92-3.68 4.66-1.94Q6.40-0.20 9.40-0.20L9.40-0.20Q11.80-0.20 13.30-1.74Q14.80-3.28 14.80-6L14.80-6Q14.80-7.64 13.84-8.82Q12.88-10 11.44-11Q10-12 8.30-12.96Q6.60-13.92 5.16-15.14Q3.72-16.36 2.76-18Q1.80-19.64 1.80-22L1.80-22Q1.80-23.36 2.32-24.56Q2.84-25.76 3.76-26.66Q4.68-27.56 5.92-28.08Q7.16-28.60 8.60-28.60L8.60-28.60Q9.80-28.60 10.72-28.28Q11.64-27.96 12.28-27.60L12.28-27.60Q13-27.16 13.60-26.60L13.60-26.60Q13.92-27.20 14.46-27.72Q15-28.24 15.60-28.40L15.60-28.40L16.20-28.40Q16.12-27.80 16.08-27.20L16.08-27.20Q16.04-26.64 16.02-26.02Q16-25.40 16-24.80L16-24.80Q16-24.12 16.02-23.46Q16.04-22.80 16.08-22.24L16.08-22.24Q16.12-21.60 16.20-21L16.20-21L15.60-21Q14.68-24.32 13.04-26.06Q11.40-27.80 9-27.80L9-27.80Q7.04-27.80 5.72-26.44Q4.40-25.08 4.40-22.80Z M25.60-18.40L30.20-18.40L30.20-17.60L25.60-17.60L25.60-4.84Q25.60-2.40 26.48-1.30Q27.36-0.20 28.40-0.20L28.40-0.20Q29.76-0.20 30.70-1.22Q31.64-2.24 31.80-4.20L31.80-4.20L32.40-4.20Q32.24-1.92 31.02-0.66Q29.80 0.60 28 0.60L28 0.60Q25.44 0.60 23.92-0.90Q22.40-2.40 22.40-4.80L22.40-4.80L22.40-17.60L19-17.60L19-18.40L22.40-18.40L22.40-23L25.60-25.20L25.60-18.40Z M44.80-3.80L44.80-9.80Q41.32-9.80 39.66-8.26Q38.00-6.72 38.00-4L38.00-4Q38.00-2.20 38.88-1.20Q39.76-0.20 40.80-0.20L40.80-0.20Q41.76-0.20 42.50-0.76Q43.24-1.32 43.76-2L43.76-2Q44.36-2.76 44.80-3.80L44.80-3.80ZM41.80-18.40L41.80-18.40Q40.60-18.40 39.80-17.58Q39.00-16.76 39.00-15.40L39.00-15.40Q39.00-15.08 39.02-14.84Q39.04-14.60 39.08-14.40L39.08-14.40Q39.12-14.20 39.20-14L39.20-14L36.00-13.20Q35.92-13.32 35.88-13.52L35.88-13.52Q35.84-13.72 35.82-13.96Q35.80-14.20 35.80-14.60L35.80-14.60Q35.80-15.44 36.20-16.22Q36.60-17 37.38-17.62Q38.16-18.24 39.26-18.62Q40.36-19 41.80-19L41.80-19Q44.68-19 46.34-17.36Q48.00-15.72 48.00-13L48.00-13L48.00-1L50.40-0.40L50.40 0L44.80 0L44.80-2.40Q44.36-1.56 43.68-0.88L43.68-0.88Q43.12-0.32 42.26 0.14Q41.40 0.60 40.20 0.60L40.20 0.60Q37.32 0.60 35.86-0.76Q34.40-2.12 34.40-4.40L34.40-4.40Q34.40-5.52 35.02-6.64Q35.64-7.76 36.90-8.64Q38.16-9.52 40.12-10.06Q42.08-10.60 44.80-10.60L44.80-10.60L44.80-13Q44.80-16 43.90-17.20Q43.00-18.40 41.80-18.40Z M58.40-12.60L58.40-1L60.80-0.40L60.80 0L52.80 0L52.80-0.40L55.20-1L55.20-17.40L52.80-18L52.80-18.40L58.40-18.40L58.40-13.60Q58.92-15.08 59.64-16.28L59.64-16.28Q60.28-17.32 61.20-18.16Q62.12-19 63.40-19L63.40-19Q63.84-19 64.24-18.94Q64.64-18.88 64.96-18.80L64.96-18.80Q65.32-18.68 65.60-18.60L65.60-18.60L64.40-15.60Q64.16-15.72 63.88-15.88L63.88-15.88Q63.64-16 63.30-16.10Q62.96-16.20 62.60-16.20L62.60-16.20Q61.56-16.20 60.76-15.64Q59.96-15.08 59.44-14.40L59.44-14.40Q58.80-13.60 58.40-12.60L58.40-12.60Z M72.80-18.40L77.40-18.40L77.40-17.60L72.80-17.60L72.80-4.84Q72.80-2.40 73.68-1.30Q74.56-0.20 75.60-0.20L75.60-0.20Q76.96-0.20 77.90-1.22Q78.84-2.24 79.00-4.20L79.00-4.20L79.60-4.20Q79.44-1.92 78.22-0.66Q77.00 0.60 75.20 0.60L75.20 0.60Q72.64 0.60 71.12-0.90Q69.60-2.40 69.60-4.80L69.60-4.80L69.60-17.60L66.20-17.60L66.20-18.40L69.60-18.40L69.60-23L72.80-25.20L72.80-18.40Z M99.40-26.60L99.40-8Q99.40-3.48 97.54-1.44Q95.68 0.60 92.20 0.60L92.20 0.60Q88.12 0.60 85.86-1.66Q83.60-3.92 83.60-8L83.60-8L83.60-27L81.20-27.60L81.20-28L89.40-28L89.40-27.60L87.00-27L87.00-8Q87.00-3.96 88.60-2.08Q90.20-0.20 92.60-0.20L92.60-0.20Q93.96-0.20 95.06-0.66Q96.16-1.12 96.94-2.08Q97.72-3.04 98.16-4.50Q98.60-5.96 98.60-8L98.60-8L98.60-26.60L96.00-27.60L96.00-28L102.00-28L102.00-27.60L99.40-26.60Z M106.20 8.60L106.20-17.40L103.80-18L103.80-18.40L109.40-18.40L109.40-16Q109.80-16.80 110.48-17.48L110.48-17.48Q111.04-18.04 111.92-18.52Q112.80-19 114.00-19L114.00-19Q115.28-19 116.54-18.34Q117.80-17.68 118.78-16.42Q119.76-15.16 120.38-13.34Q121.00-11.52 121.00-9.20L121.00-9.20Q121.00-6.88 120.38-5.06Q119.76-3.24 118.72-1.98Q117.68-0.72 116.36-0.06Q115.04 0.60 113.60 0.60L113.60 0.60Q112.44 0.60 111.66 0.30Q110.88 0 110.36-0.40L110.36-0.40Q109.76-0.84 109.40-1.40L109.40-1.40L109.40 8.60L111.80 9.20L111.80 9.60L103.80 9.60L103.80 9.20L106.20 8.60ZM113.00-0.20L113.00-0.20Q113.84-0.20 114.62-0.64Q115.40-1.08 116.02-2.14Q116.64-3.20 117.02-4.92Q117.40-6.64 117.40-9.20L117.40-9.20Q117.40-11.76 117.02-13.48Q116.64-15.20 116.06-16.24Q115.48-17.28 114.78-17.74Q114.08-18.20 113.40-18.20L113.40-18.20Q112.40-18.20 111.68-17.64Q110.96-17.08 110.44-16.40L110.44-16.40Q109.84-15.60 109.40-14.60L109.40-14.60L109.40-2.60Q109.76-1.92 110.28-1.40L110.28-1.40Q110.72-0.96 111.40-0.58Q112.08-0.20 113.00-0.20Z M141.20-7L141.20-26.60L138.60-27.60L138.60-28L144.60-28L144.60-27.60L142-26.60L142 0.40L141.40 0.40L127.80-24.60L127.80-1.40L130.40-0.40L130.40 0L124.40 0L124.40-0.40L127.00-1.40L127.00-26.80L124.40-27.60L124.40-28L129.80-28L141.20-7Z M154.80-18.40L154.80-18.40Q154.12-18.40 153.42-17.94Q152.72-17.48 152.14-16.42Q151.56-15.36 151.18-13.60Q150.80-11.84 150.80-9.20L150.80-9.20Q150.80-6.56 151.18-4.80Q151.56-3.04 152.14-1.98Q152.72-0.92 153.42-0.46Q154.12 0 154.80 0L154.80 0Q155.48 0 156.18-0.46Q156.88-0.92 157.46-1.98Q158.04-3.04 158.42-4.80Q158.80-6.56 158.80-9.20L158.80-9.20Q158.80-11.84 158.42-13.60Q158.04-15.36 157.46-16.42Q156.88-17.48 156.18-17.94Q155.48-18.40 154.80-18.40ZM154.80-19L154.80-19Q156.28-19 157.66-18.34Q159.04-17.68 160.10-16.42Q161.16-15.16 161.78-13.34Q162.40-11.52 162.40-9.20L162.40-9.20Q162.40-6.88 161.78-5.06Q161.16-3.24 160.10-1.98Q159.04-0.72 157.66-0.06Q156.28 0.60 154.80 0.60L154.80 0.60Q153.28 0.60 151.92-0.06Q150.56-0.72 149.50-1.98Q148.44-3.24 147.82-5.06Q147.20-6.88 147.20-9.20L147.20-9.20Q147.20-11.52 147.82-13.34Q148.44-15.16 149.50-16.42Q150.56-17.68 151.92-18.34Q153.28-19 154.80-19Z M176.84-13.56L172.40 0.60L171.80 0.60L165.80-17.40L163.40-18L163.40-18.40L171.40-18.40L171.40-18L169.20-17.40L173.36-4.88L177.80-19L178.40-19L183.52-4.88L187.20-17L184.60-18L184.60-18.40L190.60-18.40L190.60-18L188-17L182.60 0.60L182 0.60L176.84-13.56Z"/></g>
</svg>
</g></svg></svg>